<svg xmlns="http://www.w3.org/2000/svg" data-name="Layer 1" viewBox="0 0 200 200" width="256" height="256"><path fill="#050b1e" d="M147.9241,42.2924a9.6911,9.6911,0,0,1,9.68,9.68v96.0547a9.6911,9.6911,0,0,1-9.68,9.68h-95.92a9.6911,9.6911,0,0,1-9.68-9.68V51.9726a9.6911,9.6911,0,0,1,9.68-9.68h95.92m0-13h-95.92a22.68,22.68,0,0,0-22.68,22.68v96.0547a22.68,22.68,0,0,0,22.68,22.68h95.92a22.68,22.68,0,0,0,22.68-22.68V51.9726a22.68,22.68,0,0,0-22.68-22.68Z" class="color050b1e svgShape"></path><polyline fill="none" stroke="#050b1e" stroke-linecap="round" stroke-linejoin="round" stroke-width="13" points="73.448 86.941 86.401 99.894 73.236 113.06"></polyline><line x1="106.698" x2="126.692" y1="113.06" y2="113.06" fill="none" stroke="#050b1e" stroke-linecap="round" stroke-linejoin="round" stroke-width="13" class="colorStroke050b1e svgStroke"></line></svg>